<svg xmlns="http://www.w3.org/2000/svg" width="21.887" height="16.845" viewBox="0 0 21.887 16.845">
  <g id="About_us" data-name="About us" transform="translate(0.761 0.75)">
    <path id="Stroke_1" data-name="Stroke 1" d="M0,5.761A2.881,2.881,0,1,0,0,0" transform="translate(15.795 0.935)" fill="none" stroke="#200e32" stroke-linecap="round" stroke-linejoin="round" stroke-miterlimit="10" stroke-width="1.5"/>
    <path id="Stroke_3" data-name="Stroke 3" d="M0,0A9.368,9.368,0,0,1,1.413.2a2.321,2.321,0,0,1,1.7.971,1.371,1.371,0,0,1,0,1.176,2.345,2.345,0,0,1-1.7.977" transform="translate(17.119 9.827)" fill="none" stroke="#200e32" stroke-linecap="round" stroke-linejoin="round" stroke-miterlimit="10" stroke-width="1.5"/>
    <path id="Stroke_5" data-name="Stroke 5" d="M2.882,5.761A2.881,2.881,0,1,1,2.882,0" transform="translate(1.688 0.935)" fill="none" stroke="#200e32" stroke-linecap="round" stroke-linejoin="round" stroke-miterlimit="10" stroke-width="1.5"/>
    <path id="Stroke_7" data-name="Stroke 7" d="M3.245,0A9.368,9.368,0,0,0,1.832.2a2.317,2.317,0,0,0-1.7.971,1.365,1.365,0,0,0,0,1.176,2.341,2.341,0,0,0,1.7.977" transform="translate(0 9.827)" fill="none" stroke="#200e32" stroke-linecap="round" stroke-linejoin="round" stroke-miterlimit="10" stroke-width="1.5"/>
    <path id="Stroke_9" data-name="Stroke 9" d="M5.978,0C9.2,0,11.956.488,11.956,2.44S9.22,4.9,5.978,4.9C2.753,4.9,0,4.41,0,2.457S2.736,0,5.978,0Z" transform="translate(4.2 10.448)" fill="none" stroke="#200e32" stroke-linecap="round" stroke-linejoin="round" stroke-miterlimit="10" stroke-width="1.5"/>
    <path id="Stroke_11" data-name="Stroke 11" d="M3.831,7.663A3.831,3.831,0,1,1,7.662,3.831,3.818,3.818,0,0,1,3.831,7.663Z" transform="translate(6.347 0)" fill="none" stroke="#200e32" stroke-linecap="round" stroke-linejoin="round" stroke-miterlimit="10" stroke-width="1.5"/>
  </g>
</svg>
