<svg xmlns="http://www.w3.org/2000/svg" width="541" height="237" viewBox="0 0 541 237">
  <g id="Group_8" data-name="Group 8" transform="translate(-275.5 -292)">
    <g id="Group_7" data-name="Group 7" transform="translate(111.187 -763.125)">
      <path id="Path_1108" data-name="Path 1108" d="M342.3,1097.206c0,19.252-.031,38.175.043,57.1.008,2.016-.273,2.774-2.578,2.727-8.436-.174-16.879-.139-25.317-.016-1.914.026-2.229-.557-2.227-2.318q.083-48.54.006-97.078c0-1.781.25-2.508,2.326-2.492q20.892.16,41.786,0c1.832-.012,2.291.67,2.693,2.223q7.06,27.255,14.243,54.48a3.907,3.907,0,0,0,1.131,1.967c1.084-4.141,2.176-8.278,3.25-12.422,3.807-14.694,7.633-29.385,11.377-44.1.416-1.631,1.057-2.154,2.787-2.141q20.157.129,40.313,0c1.789-.01,2.1.547,2.1,2.2q-.074,48.786.006,97.57c0,1.783-.529,2.109-2.186,2.094-9.34-.082-18.682-.112-28.02.019-2.07.031-2.322-.7-2.316-2.475.057-18.514.035-37.03.035-55.544v-2.684l-.367-.08q-2.274,8.3-4.549,16.592c-3.815,14.016-7.647,28.026-11.391,42.058-.434,1.627-1.076,2.154-2.8,2.125-7.043-.117-14.094-.139-21.137.008-1.961.043-2.586-.631-3.068-2.407-5.006-18.426-10.106-36.827-15.168-55.237A4.365,4.365,0,0,0,342.3,1097.206Z" transform="translate(152.553 0)" fill="#fff"/>
      <path id="Path_1109" data-name="Path 1109" d="M408.974,1107.778v17.748c0,9.746-.035,19.493.037,29.241.01,1.6-.211,2.265-2.063,2.242-8.682-.109-17.366-.094-26.051-.008-1.627.014-2.006-.451-2-2.033q.068-48.9,0-97.8c0-1.629.453-2.039,2.045-2.022,8.029.08,16.059.106,24.086-.014a4.751,4.751,0,0,1,4.1,1.981q19.862,23.416,39.827,46.745c.26.305.543.588.877.947.719-.77.379-1.617.381-2.36.022-14.99.047-29.979-.023-44.968-.008-1.748.287-2.375,2.234-2.346,8.6.123,17.2.088,25.8.022,1.529-.012,2.092.289,2.09,1.981q-.08,49.026-.014,98.047c0,1.332-.281,1.826-1.727,1.813q-12.78-.1-25.559.008c-1.4.012-2.018-.752-2.77-1.621q-19.518-22.58-39.063-45.138C410.6,1109.565,409.991,1108.911,408.974,1107.778Z" transform="translate(222.498 0.001)" fill="#fff"/>
      <path id="Path_1110" data-name="Path 1110" d="M178.842,1079.807c1.469-2.2,3.545-3.83,5.377-5.684,5.756-5.825,11.6-11.567,17.338-17.415a4.907,4.907,0,0,1,3.867-1.566q52.228.059,104.457-.012c1.982,0,2.623.445,2.619,2.537q-.1,52.219-.037,104.44a4.122,4.122,0,0,1-1.1,3.33c-7.457,7.371-14.852,14.805-22.27,22.215-.223.221-.49.4-1.02.824v-90.9c-1.354.172-1.848,1.1-2.488,1.738q-31.659,31.6-63.259,63.252a5.6,5.6,0,0,1-4.506,1.843q-6.384-.181-12.778,0c-1.684.045-2.076-.566-2.041-2.121.088-4.012.129-8.031-.012-12.039a6.33,6.33,0,0,1,2.076-5.147q31.619-31.462,63.13-63.034a22.87,22.87,0,0,1,1.975-1.607c-.418-1.026-.992-.754-1.418-.754q-44.609-.022-89.217-.013a6.188,6.188,0,0,0-.727.078Z" transform="translate(12.579 0.004)" fill="#fc9e15"/>
      <path id="Path_1111" data-name="Path 1111" d="M304.664,1079.687c-15.231,0-29.979-.043-44.724.053-2,.012-2.391-.582-2.361-2.437.109-6.715.1-13.436,0-20.151-.023-1.625.445-2.014,2.037-2.012q46.7.071,93.406-.008c1.807,0,1.953.639,2.133,2.217.668,5.85-1.268,10.531-4.727,15.3-13.785,19-27.176,38.286-40.71,57.466-.463.656-.916,1.315-1.607,2.305,1.117.053,1.955.127,2.793.127,13.93.008,27.858.043,41.786-.039,1.908-.01,2.484.455,2.447,2.42-.129,6.715-.1,13.434-.014,20.151.018,1.492-.34,1.914-1.883,1.912q-46.948-.074-93.9-.006c-1.4,0-1.951-.39-1.725-1.767a.824.824,0,0,0,0-.246c-.826-5.818,1.143-10.514,4.617-15.295,13.8-18.987,27.19-38.276,40.729-57.453C303.467,1081.513,303.935,1080.777,304.664,1079.687Z" transform="translate(95.072 0.007)" fill="#fff"/>
      <path id="Path_1112" data-name="Path 1112" d="M191.382,1067.155q-.009,53.448-.068,106.9c0,1.975.662,2.194,2.361,2.192q51.617-.07,103.231-.035h2.936c.305.8-.408,1.021-.75,1.363-7.166,7.2-14.364,14.366-21.518,21.579a3.831,3.831,0,0,1-2.99,1.26q-52.843-.052-105.688.016c-1.816,0-2.086-.584-2.084-2.215q.071-52.468.035-104.934a3.237,3.237,0,0,1,.793-2.672q11.625-11.483,23.159-23.051a2.992,2.992,0,0,1,.619-.367Z" transform="translate(0 12.621)" fill="#fff"/>
      <path id="Path_1113" data-name="Path 1113" d="M407.136,1132.889c0-6.469.053-12.941-.033-19.409-.025-1.748.354-2.508,2.295-2.414,3.268.158,6.553.131,9.826.006,1.674-.063,2.068.545,2.027,2.111-.1,3.928.023,7.862-.059,11.793-.031,1.451.346,2.035,1.9,2q5.772-.144,11.549,0c1.541.039,1.955-.523,1.926-1.988-.082-4.012.014-8.026-.051-12.039-.021-1.373.434-1.885,1.834-1.857,3.52.072,7.043.053,10.565.006,1.166-.014,1.791.195,1.785,1.593q-.065,20.025-.008,40.05c0,1.1-.242,1.639-1.484,1.619-3.684-.06-7.373-.066-11.057,0-1.35.027-1.648-.539-1.631-1.756.053-4.094-.047-8.191.049-12.283.039-1.619-.3-2.338-2.121-2.271-3.762.137-7.537.1-11.3.01-1.475-.037-2.006.348-1.967,1.908.1,4.092-.021,8.19.064,12.283.031,1.51-.268,2.194-1.986,2.125-3.352-.135-6.719-.123-10.072,0-1.633.059-2.1-.472-2.084-2.074C407.181,1145.83,407.136,1139.36,407.136,1132.889Z" transform="translate(252.096 58.682)" fill="#fc9e15"/>
      <path id="Path_1114" data-name="Path 1114" d="M308.355,1132.522c0-6.387.043-12.776-.031-19.162-.016-1.6.289-2.309,2.123-2.3q16.583.123,33.169,0c1.783-.012,2.264.586,2.158,2.254a37.446,37.446,0,0,0,.01,5.891c.2,2.179-.752,2.556-2.682,2.523-6.223-.1-12.453.08-18.672-.1-2.428-.07-2.422,1.154-2.293,2.838.113,1.492-.67,3.305,2.2,3.188,5.152-.209,10.317-.012,15.475-.088,1.516-.021,2.25.281,2.125,2a43.475,43.475,0,0,0,0,6.135c.111,1.6-.527,1.9-1.967,1.877-5.24-.074-10.483.014-15.723-.055-1.486-.02-2.158.238-2.15,1.969.023,4.547-.072,4.547,4.486,4.547,5.731,0,11.465.039,17.2-.026,1.451-.016,2.078.346,1.994,1.912-.117,2.205-.1,4.424,0,6.631.066,1.435-.488,1.8-1.846,1.795q-16.832-.064-33.661.006c-1.506.008-1.957-.44-1.94-1.942C308.4,1145.788,308.355,1139.153,308.355,1132.522Z" transform="translate(148.464 58.686)" fill="#fc9e15"/>
      <path id="Path_1115" data-name="Path 1115" d="M390.859,1129.122c-.41,0-.818,0-1.227,0-1.391-.008-2.881.291-4.149-.106-1.6-.506-.76-2.389-1.309-3.59a6.4,6.4,0,0,0-5.83-4.16c-2.912-.162-5.613.592-6.727,3.455a22.139,22.139,0,0,0-.055,16.036c1.053,2.85,3.914,3.984,7.369,3.582,3.2-.375,5.4-2.086,5.9-5.3.338-2.174,1.3-2.526,3.182-2.41a61.992,61.992,0,0,0,7.119.006c1.6-.086,1.883.564,1.85,2.006a15.774,15.774,0,0,1-14.807,15.512,48.216,48.216,0,0,1-9.561-.1c-8.037-1.063-13.547-6.678-14.942-14.754a37.3,37.3,0,0,1,.035-13.184c1.555-8.467,7.481-13.781,16.073-14.752a28.1,28.1,0,0,1,12.352,1.049,15.839,15.839,0,0,1,10.844,14.627c.057,1.512-.2,2.3-1.943,2.111A39.874,39.874,0,0,0,390.859,1129.122Z" transform="translate(199.635 58.75)" fill="#fc9e15"/>
      <path id="Path_1116" data-name="Path 1116" d="M278.281,1111.1c6.219,0,12.44.049,18.659-.033,1.629-.022,2.146.494,2.066,2.1-.123,2.449-.1,4.91-.006,7.363.055,1.391-.4,1.842-1.8,1.805-3.354-.088-6.713.051-10.065-.062-1.6-.055-2.076.41-2.061,2.037.076,9.164-.02,18.329.08,27.5.023,1.955-.352,2.766-2.5,2.627a85.531,85.531,0,0,0-9.082-.014c-1.715.07-2.223-.484-2.209-2.2.08-9.166-.012-18.332.08-27.5.021-1.881-.412-2.568-2.4-2.461-3.266.176-6.547,0-9.819.072-1.254.029-1.742-.312-1.693-1.639.094-2.532.133-5.078-.01-7.608-.1-1.695.57-2.035,2.109-2.016C265.838,1111.143,272.059,1111.1,278.281,1111.1Z" transform="translate(95.144 58.69)" fill="#fc9e15"/>
    </g>
    <line id="Line_87" data-name="Line 87" x2="202" transform="translate(278 512)" fill="none" stroke="#fc9e15" stroke-linecap="round" stroke-width="5"/>
    <line id="Line_88" data-name="Line 88" x2="202" transform="translate(612 512)" fill="none" stroke="#fc9e15" stroke-linecap="round" stroke-width="5"/>
    <text id="زمن_التطور" data-name="زمن التطور" transform="translate(546 515)" fill="#fff" font-size="25" font-family="Cairo-Bold, Cairo" font-weight="700"><tspan x="-60.075" y="0">زمن التطور</tspan></text>
  </g>
</svg>
