<svg xmlns="http://www.w3.org/2000/svg" width="21.5" height="22.676" viewBox="0 0 21.5 22.676">
  <g id="Home" transform="translate(0.75 0.873)">
    <path id="Home-2" data-name="Home" d="M7.008,19.759V16.531a1.5,1.5,0,0,1,1.5-1.494h3.038a1.5,1.5,0,0,1,1.509,1.494h0v3.238a1.289,1.289,0,0,0,1.266,1.283h2.025A3.638,3.638,0,0,0,20,17.433h0V8.25a2.568,2.568,0,0,0-1.013-2.005L12.061.721a3.348,3.348,0,0,0-4.152,0l-6.9,5.534A2.548,2.548,0,0,0,0,8.26v9.173a3.638,3.638,0,0,0,3.656,3.619H5.681a1.3,1.3,0,0,0,1.306-1.293h0" transform="translate(0 0)" fill="none" stroke="#200e32" stroke-linecap="round" stroke-linejoin="round" stroke-miterlimit="10" stroke-width="1.5"/>
  </g>
</svg>
