<svg xmlns="http://www.w3.org/2000/svg" width="120.449" height="35.509" viewBox="0 0 120.449 35.509">
  <g id="Group_6" data-name="Group 6" transform="translate(-166.813 -1055.125)">
    <path id="Path_1108" data-name="Path 1108" d="M318.981,1064.581c0,4.326-.007,8.579.01,12.831,0,.453-.061.624-.579.613-1.9-.039-3.793-.031-5.689,0-.43.006-.5-.125-.5-.521q.019-10.908,0-21.815c0-.4.056-.564.523-.56q4.695.036,9.39,0c.412,0,.515.151.605.5q1.587,6.125,3.2,12.243a.878.878,0,0,0,.254.442c.244-.931.489-1.86.73-2.792.856-3.3,1.715-6.6,2.557-9.909a.529.529,0,0,1,.626-.481q4.53.029,9.059,0c.4,0,.473.123.472.494q-.017,10.963,0,21.926c0,.4-.119.474-.491.471-2.1-.018-4.2-.025-6.3,0-.465.007-.522-.157-.52-.556.013-4.16.008-8.321.008-12.482v-.6l-.082-.018q-.511,1.864-1.022,3.729c-.857,3.15-1.719,6.3-2.56,9.451a.529.529,0,0,1-.629.478c-1.583-.026-3.167-.031-4.75,0-.441.01-.581-.142-.689-.541-1.125-4.141-2.271-8.276-3.408-12.413A.98.98,0,0,0,318.981,1064.581Z" transform="translate(-78.451)" fill="#fff"/>
    <path id="Path_1109" data-name="Path 1109" d="M385.651,1066.958v3.988c0,2.19-.008,4.38.008,6.571,0,.359-.047.509-.464.5-1.951-.024-3.9-.021-5.854,0-.366,0-.451-.1-.45-.457q.015-10.989,0-21.978c0-.366.1-.458.46-.454,1.8.018,3.609.024,5.412,0a1.068,1.068,0,0,1,.922.445q4.463,5.262,8.95,10.5c.058.069.122.132.2.213.162-.173.085-.363.086-.53.005-3.368.011-6.737-.005-10.105,0-.393.064-.534.5-.527,1.933.028,3.866.02,5.8.005.344,0,.47.065.47.445q-.018,11.017,0,22.033c0,.3-.063.41-.388.408q-2.872-.023-5.744,0a.755.755,0,0,1-.623-.364q-4.386-5.074-8.778-10.143C386.016,1067.36,385.88,1067.213,385.651,1066.958Z" transform="translate(-114.421 -0.001)" fill="#fff"/>
    <path id="Path_1110" data-name="Path 1110" d="M178.812,1060.675a9.216,9.216,0,0,1,1.208-1.277c1.293-1.309,2.607-2.6,3.9-3.914a1.1,1.1,0,0,1,.869-.352q11.737.013,23.473,0c.445,0,.589.1.588.57q-.022,11.734-.008,23.47a.926.926,0,0,1-.248.748c-1.676,1.656-3.338,3.327-5,4.992-.05.05-.11.089-.229.185v-20.427c-.3.039-.415.247-.559.391q-7.114,7.1-14.215,14.214a1.257,1.257,0,0,1-1.013.414q-1.435-.041-2.872,0c-.379.01-.466-.127-.459-.477.02-.9.029-1.8,0-2.705a1.422,1.422,0,0,1,.466-1.157q7.105-7.07,14.186-14.165a5.129,5.129,0,0,1,.444-.361c-.094-.231-.223-.169-.319-.169q-10.024,0-20.049,0a1.392,1.392,0,0,0-.163.018Z" transform="translate(-6.469 -0.002)" fill="#fff"/>
    <path id="Path_1111" data-name="Path 1111" d="M268.046,1060.65c-3.423,0-6.737-.01-10.05.012-.449,0-.537-.131-.53-.547.024-1.509.022-3.019,0-4.528-.005-.365.1-.453.458-.452q10.495.016,20.99,0c.406,0,.439.144.479.5a4.685,4.685,0,0,1-1.062,3.438c-3.1,4.27-6.107,8.6-9.148,12.914-.1.147-.206.3-.361.518.251.012.439.029.628.029,3.13,0,6.26.01,9.39-.009.429,0,.558.1.55.544-.029,1.509-.022,3.019,0,4.528,0,.335-.076.43-.423.43q-10.55-.016-21.1,0c-.314,0-.438-.087-.388-.4a.187.187,0,0,0,0-.055,4.516,4.516,0,0,1,1.037-3.437c3.1-4.267,6.11-8.6,9.152-12.911C267.777,1061.06,267.882,1060.895,268.046,1060.65Z" transform="translate(-48.891 -0.004)" fill="#fff"/>
    <path id="Path_1112" data-name="Path 1112" d="M172.334,1067.155q0,12.011-.015,24.022c0,.444.149.493.53.493q11.6-.016,23.2-.008h.66c.069.181-.092.229-.169.306-1.61,1.618-3.228,3.228-4.835,4.849a.861.861,0,0,1-.672.283q-11.875-.012-23.75,0c-.408,0-.469-.131-.468-.5q.016-11.791.008-23.581a.728.728,0,0,1,.178-.6q2.612-2.581,5.2-5.18a.673.673,0,0,1,.139-.082Z" transform="translate(0 -6.491)" fill="#fff"/>
    <path id="Path_1113" data-name="Path 1113" d="M407.11,1115.964c0-1.454.012-2.908-.007-4.362-.006-.393.08-.564.516-.542.734.036,1.473.029,2.208,0,.376-.014.465.123.455.474-.022.883.005,1.767-.013,2.65-.007.326.078.457.428.448q1.3-.032,2.6,0c.346.009.439-.117.433-.447-.018-.9,0-1.8-.012-2.705,0-.308.1-.424.412-.417.791.016,1.583.012,2.374,0,.262,0,.4.044.4.358q-.014,4.5,0,9c0,.246-.054.368-.333.364-.828-.013-1.657-.015-2.485,0-.3.006-.37-.121-.367-.395.012-.92-.011-1.841.011-2.76.009-.364-.066-.525-.477-.51-.845.031-1.694.023-2.54,0-.332-.008-.451.078-.442.429.023.92,0,1.84.014,2.76.007.339-.06.493-.446.478-.753-.031-1.51-.028-2.263,0-.367.013-.472-.106-.468-.466C407.12,1118.872,407.11,1117.418,407.11,1115.964Z" transform="translate(-129.641 -30.177)" fill="#fff"/>
    <path id="Path_1114" data-name="Path 1114" d="M308.331,1115.885c0-1.435.01-2.871-.007-4.306,0-.36.065-.519.477-.516q3.726.027,7.454,0c.4,0,.509.132.485.506a8.414,8.414,0,0,0,0,1.324c.046.49-.169.574-.6.567-1.4-.024-2.8.018-4.2-.023-.546-.016-.544.259-.515.638.025.335-.151.743.495.717,1.158-.047,2.319,0,3.478-.02.341,0,.506.063.478.449a9.773,9.773,0,0,0,0,1.379c.025.359-.118.427-.442.422-1.177-.017-2.356,0-3.533-.012-.334,0-.485.053-.483.443.005,1.022-.016,1.022,1.008,1.022,1.288,0,2.576.009,3.865-.006.326,0,.467.078.448.43-.026.5-.023.994,0,1.49.015.322-.11.4-.415.4q-3.782-.015-7.564,0c-.338,0-.44-.1-.436-.437C308.34,1118.866,308.331,1117.375,308.331,1115.885Z" transform="translate(-76.348 -30.18)" fill="#fff"/>
    <path id="Path_1115" data-name="Path 1115" d="M364.685,1115.168h-.276a3.3,3.3,0,0,1-.932-.024c-.361-.114-.171-.537-.294-.807a1.439,1.439,0,0,0-1.31-.935,1.368,1.368,0,0,0-1.512.776,4.975,4.975,0,0,0-.012,3.6,1.428,1.428,0,0,0,1.656.8,1.368,1.368,0,0,0,1.326-1.191c.076-.489.292-.568.715-.542a13.932,13.932,0,0,0,1.6,0c.361-.019.423.127.416.451a3.545,3.545,0,0,1-3.327,3.486,10.833,10.833,0,0,1-2.149-.022,3.827,3.827,0,0,1-3.358-3.315,8.383,8.383,0,0,1,.008-2.963,3.9,3.9,0,0,1,3.612-3.315,6.311,6.311,0,0,1,2.776.236,3.559,3.559,0,0,1,2.437,3.287c.013.34-.046.516-.437.474A8.957,8.957,0,0,0,364.685,1115.168Z" transform="translate(-102.663 -30.213)" fill="#fff"/>
    <path id="Path_1116" data-name="Path 1116" d="M262.171,1111.074c1.4,0,2.8.011,4.193-.007.366-.005.482.111.464.472-.028.55-.023,1.1,0,1.655.012.313-.091.414-.405.406-.754-.02-1.509.012-2.262-.014-.359-.012-.466.092-.463.458.017,2.059,0,4.119.018,6.179.005.439-.079.622-.562.59a19.192,19.192,0,0,0-2.041,0c-.385.016-.5-.109-.5-.495.018-2.06,0-4.12.018-6.179,0-.423-.093-.577-.54-.553-.734.04-1.471,0-2.207.016-.282.006-.391-.07-.38-.368.021-.569.03-1.141,0-1.71-.022-.381.128-.457.474-.453C259.375,1111.084,260.773,1111.074,262.171,1111.074Z" transform="translate(-48.928 -30.182)" fill="#fff"/>
  </g>
</svg>
