<svg xmlns="http://www.w3.org/2000/svg" width="49.29" height="49.208" viewBox="0 0 49.29 49.208">
  <path id="Facebook" d="M218.734,1221c-14.478.03-28.955.01-43.433.021a3.184,3.184,0,0,0-1.316.308c-1.248.594-1.51,1.716-1.51,2.974q.008,21.471.006,42.938a2.755,2.755,0,0,0,2.988,2.949q11.375,0,22.75.018c.4,0,.526-.112.526-.516q-.019-8.927,0-17.854c0-.485-.16-.618-.626-.612-1.741.023-3.484,0-5.227.016-.418,0-.581-.142-.58-.567,0-2.142-.01-4.286-.024-6.428,0-.444.147-.639.639-.631,1.686.03,3.371.011,5.057.011h.755c0-.2,0-.313,0-.425.065-2.423.013-4.859.234-7.269a8.091,8.091,0,0,1,2.837-5.46,9.4,9.4,0,0,1,6.3-2.21c1.911-.027,3.824.136,5.736.2.387.013.493.2.492.541q-.006,3.041-.01,6.084a1.9,1.9,0,0,1-.074.34c-.208,0-.415,0-.621,0-1.491.034-2.983.033-4.47.116a2.431,2.431,0,0,0-2.454,2.39c-.094,1.849-.072,3.7-.1,5.556,0,.03.04.061.091.136h.594q2.959,0,5.917,0c.768,0,.81.052.707.822q-.385,2.891-.768,5.781c-.135,1.022-.13,1.015-1.189,1.01-1.76-.007-3.52,0-5.328,0a2.752,2.752,0,0,0-.043.3q0,9.1-.008,18.2c0,.37.149.459.476.454.707-.013,1.417-.006,2.125-.006,3.275,0,6.549.006,9.824,0a2.574,2.574,0,0,0,2.689-2.364,12.975,12.975,0,0,0,.051-1.486q0-20.722,0-41.445c0-.229,0-.461.009-.689A2.833,2.833,0,0,0,218.734,1221Z" transform="translate(-172.474 -1220.995)" fill="#fff"/>
</svg>
