<svg xmlns="http://www.w3.org/2000/svg" width="54.698" height="54.731" viewBox="0 0 54.698 54.731">
  <g id="instagram_icon" data-name="instagram icon" transform="translate(-2657.441 -1392.681)">
    <path id="Path_1198" data-name="Path 1198" d="M2712.112,1406.65c.007-.6.031-1.2.018-1.8a11.964,11.964,0,0,0-12-12.084q-15.3-.175-30.607.007a11.926,11.926,0,0,0-12,11.743c-.163,4.683-.039,9.375-.043,14.063a5.307,5.307,0,0,0,1.387-.756,5.307,5.307,0,0,1-1.387.756l.011,7.653c.007,3.147-.084,6.3.058,9.44a9.277,9.277,0,0,0,1.452,5.108,4.2,4.2,0,0,0,.971,1.849,11.9,11.9,0,0,0,9.541,4.7c5.59.132,11.184.061,16.776.064,2.776,0,5.552-.023,8.328-.035,1.45.006,2.9.028,4.35.014a8.6,8.6,0,0,0,3.716-.467,10.069,10.069,0,0,0,5.763-2.953,10.86,10.86,0,0,0,3.622-8.095C2712.193,1426.124,2712.113,1416.387,2712.112,1406.65Zm-47.9,16.864c.01-.1.019-.2.024-.3-.005.1-.015.2-.024.3a2.357,2.357,0,0,0,.115,1.325A2.357,2.357,0,0,1,2664.213,1423.514Zm-.145-11.353c.016-.008.036-.013.052-.021C2664.1,1412.148,2664.084,1412.153,2664.068,1412.162Zm-4,4.65c-.26.234-.521.469-.79.691C2659.551,1417.281,2659.812,1417.046,2660.072,1416.812Zm22.816,24.217a.492.492,0,0,0,.062.021A.492.492,0,0,1,2682.888,1441.029Zm17.086-2.525h0a17.5,17.5,0,0,1-8.4,1.8c-2.954.008-5.908.107-8.862.167h0c-1.683-.077-3.366-.23-5.049-.21a28.3,28.3,0,0,1-4.684-.428,14.423,14.423,0,0,1-3.262-1.355.462.462,0,0,1-.734.209.462.462,0,0,0,.734-.209,11.728,11.728,0,0,1-4.873-7.674c-.437-1.912-.011-3.81-.333-5.69h0a19.113,19.113,0,0,0-.021-4.308,18.912,18.912,0,0,0,.01-3.56,2.914,2.914,0,0,1-.3-1.791,2.919,2.919,0,0,0,.3,1.791,40.873,40.873,0,0,0,.092-5.208,14.087,14.087,0,0,1,2.106-7.369c2.223-3.246,5.524-4.567,9.254-4.736,5.81-.263,11.633-.23,17.446-.022,3.255.117,6.287,1.015,8.6,3.556a10.71,10.71,0,0,1,2.3,4.049h0c.974,2.924.747,5.968.846,8.971.094,2.871.029,5.747.034,8.621a15.433,15.433,0,0,0-.139,3.847C2704.649,1432.828,2703.263,1436.171,2699.974,1438.5Z" fill="#fff"/>
    <path id="Path_1199" data-name="Path 1199" d="M2717.31,1426.461c.209-.335.016-.536-.239-.716.343-2.1-2.872-5.839-5.65-5.627-.3-.452-.711-.379-1.137-.247a2.392,2.392,0,0,0-1.358-.143,1.479,1.479,0,0,0-1.325-.036q-7.219-.287-14.435.035a.24.24,0,0,0-.418.013,1.517,1.517,0,0,0-.922.081l-.492.147c-.346-.329-.613-.187-.851.141-.5-.05-.9.287-1.355.4a5.529,5.529,0,0,0-4.093,4.131,6.138,6.138,0,0,0-.381,1.165,71.238,71.238,0,0,0-.311,11.9,5.436,5.436,0,0,1,1.96-.821,5.433,5.433,0,0,0-1.96.821,46.615,46.615,0,0,0,.2,8.069c.438,4.494,3.173,6.783,7.727,6.989a80.786,80.786,0,0,0,11.491.139c1.987-.031,3.978-.009,5.961-.108a7.367,7.367,0,0,0,4.428-1.335,5.548,5.548,0,0,0,2.931-4.7c.062-.155.528-.184.149-.476a1.581,1.581,0,0,0,.249-1.147,3.931,3.931,0,0,0,.151-.754q.015-8.022,0-16.045a3.741,3.741,0,0,0-.155-.751A1.683,1.683,0,0,0,2717.31,1426.461Zm-4.628-3.5a.157.157,0,0,0-.1-.066A.157.157,0,0,1,2712.681,1422.963Zm-3.294,2.091a2.245,2.245,0,0,1,2.055-2.017,6.364,6.364,0,0,1,.892-.014h0a.419.419,0,0,0,.451.174c1.522,1.165,1.856,2.532.9,3.694a2.351,2.351,0,0,1-2.8.775A2.47,2.47,0,0,1,2709.387,1425.054Zm2.261,10.753a2.158,2.158,0,0,1,.025.314A2.158,2.158,0,0,0,2711.648,1435.807Zm-13.882,10.3c-4.151-1.332-6.465-4.359-7.181-8.633l-.3-.321-.243.2.243-.2h0l.3.321a3.962,3.962,0,0,0-.1-2.033,1.062,1.062,0,0,0-.2.411,1.354,1.354,0,0,0-.032.225,1.354,1.354,0,0,1,.032-.225,1.062,1.062,0,0,1,.2-.411c.036-4,4.127-9.034,9.3-9.53a10.533,10.533,0,0,1,11.574,9.07h0a5.775,5.775,0,0,0,.022,2.28,10.779,10.779,0,0,1-3.135,6.429A10.051,10.051,0,0,1,2697.766,1446.11Z" transform="translate(-16.144 -16.194)" fill="#fff"/>
    <path id="Path_1200" data-name="Path 1200" d="M2716.065,1444.444c-3.225-.054-6.327,2.348-6.674,5.155q-.007.127-.014.254a3.013,3.013,0,0,0-.126,2.626,6.728,6.728,0,0,0,11.938,2.977,6.123,6.123,0,0,0,.87-7.012A6.658,6.658,0,0,0,2716.065,1444.444Z" transform="translate(-31.078 -31.193)" fill="#fff"/>
  </g>
</svg>
