<svg xmlns="http://www.w3.org/2000/svg" width="52.963" height="52.963" viewBox="0 0 52.963 52.963">
  <path id="Linked_in_icon" data-name="Linked in icon" d="M2435.491,1450.137a4.727,4.727,0,0,0-3.509-1.1,5.246,5.246,0,0,0-4.829,2.745v20.133h9.394v-18.26A4.947,4.947,0,0,0,2435.491,1450.137Zm6.763-31.18h-35.03a8.966,8.966,0,0,0-8.966,8.967v35.03a8.968,8.968,0,0,0,7.5,8.844v-28.429h7.652v28.551h6.122v-28.551h7.177l.238,3.3a9.967,9.967,0,0,1,8.206-3.826q4.539,0,6.755,2.665t2.269,7.969v18.237a8.968,8.968,0,0,0,7.047-8.758v-35.03A8.967,8.967,0,0,0,2442.253,1418.957Zm-29.574,19.873a4.892,4.892,0,0,1-6.2,0,4.045,4.045,0,0,1-.026-5.673,4.946,4.946,0,0,1,6.241,0,4.03,4.03,0,0,1-.014,5.673Z" transform="translate(-2398.257 -1418.957)" fill="#fff"/>
</svg>
