<svg xmlns="http://www.w3.org/2000/svg" width="50.126" height="50.523" viewBox="0 0 50.126 50.523">
  <g id="Whats_app_icon" data-name="Whats app icon" transform="translate(-2852.282 -578.229)">
    <path id="Path_1195" data-name="Path 1195" d="M2852.282,628.751c.936-2.784,1.835-5.464,2.737-8.144.512-1.522,1.014-3.047,1.55-4.56a1.037,1.037,0,0,0-.107-.958,24.6,24.6,0,1,1,25.144,12.075,24.121,24.121,0,0,1-15.3-2.562.943.943,0,0,0-.809-.065q-6.387,2.064-12.783,4.1C2852.606,628.672,2852.5,628.695,2852.282,628.751Zm6.247-6.148c.254-.074.432-.122.607-.179,2.276-.732,4.555-1.458,6.826-2.207a.948.948,0,0,1,.9.119,20.05,20.05,0,0,0,9.849,3.134,20.572,20.572,0,0,0,21.224-25.009c-1.95-8.539-7.443-14-16.006-15.769-8.508-1.757-15.7,1.073-20.795,8.1-5.111,7.049-5.312,14.648-1.232,22.35.355.67,1.106,1.212,1.1,1.956a7.762,7.762,0,0,1-.679,2.176Z" fill="#fcfdfc"/>
    <path id="Path_1196" data-name="Path 1196" d="M2975.357,695.547c1.548,0,1.593.031,2.144,1.364.568,1.373,1.127,2.751,1.714,4.117a1.319,1.319,0,0,1-.032,1.2,7.93,7.93,0,0,1-1.457,1.906.989.989,0,0,0-.146,1.376,18.9,18.9,0,0,0,4.352,4.914,19.963,19.963,0,0,0,3.915,2.146.881.881,0,0,0,1.129-.247,18.98,18.98,0,0,0,1.825-2.255.947.947,0,0,1,1.272-.423c1.728.716,3.389,1.572,5.057,2.415a.68.68,0,0,1,.379.654,4.512,4.512,0,0,1-2.17,4.319,7.05,7.05,0,0,1-5.757.8,23.188,23.188,0,0,1-13.578-9.816,15.087,15.087,0,0,1-2.574-5.007,6.762,6.762,0,0,1,2.115-6.963A2.281,2.281,0,0,1,2975.357,695.547Z" transform="translate(-105.212 -103.783)" fill="#f9f9f9"/>
  </g>
</svg>
